<?xml version="1.0" encoding="UTF-8"?>
<svg id="Layer_1" xmlns="http://www.w3.org/2000/svg" version="1.1" viewBox="0 0 4000 4000">
  <!-- Generator: Adobe Illustrator 29.1.0, SVG Export Plug-In . SVG Version: 2.1.0 Build 142)  -->
  <defs>
    <style>
      .st0 {
        fill: #fdfeff;
      }

      .st1 {
        fill: #19232a;
      }

      .st2 {
        fill: #ff008f;
      }
    </style>
  </defs>
  <path class="st1" d="M3333.38,1348.41c-36.96-87.38-82.7-171.65-135.95-250.47-52.73-78.05-113.28-151.44-179.98-218.13-66.69-66.69-140.08-127.25-218.13-179.98-78.82-53.25-163.09-98.99-250.47-135.95-181.82-76.9-374.91-115.9-573.9-115.9s-392.08,38.99-573.9,115.9c-87.38,36.96-171.65,82.7-250.47,135.95-78.05,52.73-151.44,113.28-218.13,179.98-66.69,66.69-127.25,140.08-179.98,218.13-53.25,78.82-98.99,163.09-135.95,250.47-76.9,181.82-115.9,374.91-115.9,573.9s38.99,392.08,115.9,573.9c36.96,87.38,82.7,171.65,135.95,250.47,52.73,78.05,113.28,151.44,179.98,218.13,66.69,66.69,140.08,127.25,218.13,179.98,78.82,53.25,163.09,98.99,250.47,135.95,181.82,76.9,374.91,115.9,573.9,115.9s392.08-38.99,573.9-115.9c87.38-36.96,171.65-82.7,250.47-135.95,78.05-52.73,151.44-113.28,218.13-179.98s127.25-140.08,179.98-218.13c53.25-78.82,98.99-163.09,135.95-250.47,76.9-181.82,115.9-374.91,115.9-573.9s-38.99-392.08-115.9-573.9Z"/>
  <path class="st2" d="M952.36,1890.28c5.38-309.98,159.88-522.45,159.88-522.45l-104.82-104.74c-24.66,38.8-166.91,235.05-197.77,543.62-39.54,493.5,197.6,776.17,197.6,776.17l109.04-108.89c-49.5-68.14-169.45-266.14-163.93-583.71Z"/>
  <path class="st2" d="M1290.63,1545.58l-110.79-110.35s-300.31,431.65,0,975.32l110.79-110.63s-218.44-346.25,0-754.33Z"/>
  <path class="st2" d="M1467.22,1721.3l-106.01-105.47s-165.89,284.85.63,612.97l105.38-105.23s-122.85-163.68,0-402.27Z"/>
  <path class="st2" d="M2942.43,1262.42l-104.82,104.74s154.5,212.47,159.88,522.45c5.51,317.57-114.43,515.57-163.93,583.71l109.04,108.89s237.14-282.67,197.6-776.17c-30.86-308.57-173.11-504.82-197.77-543.62Z"/>
  <path class="st2" d="M2770.01,1434.56l-110.79,110.35c218.44,408.08,0,754.33,0,754.33l110.79,110.63c300.31-543.66,0-975.32,0-975.32Z"/>
  <path class="st2" d="M2588.64,1615.17l-106.01,105.47c122.85,238.59,0,402.27,0,402.27l105.38,105.23c166.52-328.12.63-612.97.63-612.97Z"/>
  <path class="st2" d="M1359.79,1013.16c58.62-39.6,121.29-73.62,186.26-101.1,135.2-57.19,278.8-86.18,426.8-86.18s291.6,29,426.8,86.18c64.98,27.48,127.65,61.5,186.26,101.1,4.85,3.28,9.67,6.61,14.48,9.97l44.42-44.86c-189.23-134.71-420.7-213.94-670.67-213.94s-481.35,79.19-670.55,213.85l43.61,43.62c4.18-2.91,8.37-5.8,12.58-8.64Z"/>
  <path class="st2" d="M2585.93,2831.53c-58.62,39.6-121.29,73.62-186.26,101.1-135.2,57.19-278.8,86.18-426.8,86.18s-291.6-29-426.8-86.18c-64.98-27.48-127.65-61.5-186.26-101.1-4.24-2.86-8.46-5.77-12.66-8.7l-43.35,43.27c189.17,134.58,420.53,213.72,670.37,213.72s481.59-79.28,670.85-214.06l-44.45-44.31c-4.85,3.4-9.73,6.77-14.63,10.08Z"/>
  <path class="st2" d="M1974.1,1168.68c-101.58,0-200.11,19.89-292.84,59.11-29.5,12.48-57.99,26.74-85.43,42.7l45.87,45.88c19.98-10.89,40.54-20.82,61.66-29.75,85.15-36.02,175.58-54.28,268.78-54.28s183.63,18.26,268.78,54.28c22.83,9.66,45.01,20.47,66.51,32.41l46.92-47.39c-28.04-16.44-57.21-31.08-87.41-43.86-92.73-39.22-191.25-59.11-292.84-59.11Z"/>
  <path class="st2" d="M1974.1,2673.38c101.58,0,200.11-19.89,292.84-59.11,28.94-12.24,56.92-26.2,83.88-41.8l-45.05-44.91c-20.98,11.58-42.6,22.09-64.84,31.5-85.15,36.02-175.58,54.28-268.78,54.28s-183.63-18.26-268.78-54.28c-21.23-8.98-41.9-18.97-61.98-29.93l-43.63,43.55c26.85,15.52,54.71,29.41,83.52,41.59,92.73,39.22,191.25,59.11,292.84,59.11Z"/>
  <path class="st2" d="M1972.14,2540.34c83.38,0,164.24-16.32,240.35-48.51,13.31-5.63,26.37-11.7,39.18-18.21l-46.31-46.17c-5.37,2.47-10.77,4.87-16.23,7.18-68.74,29.07-141.74,43.82-216.98,43.82s-148.24-14.74-216.98-43.82c-4.46-1.89-8.88-3.83-13.28-5.82l-46.36,46.28c11.88,5.95,23.97,11.54,36.27,16.74,76.1,32.19,156.97,48.51,240.35,48.51Z"/>
  <path class="st2" d="M1972.14,1305.34c-83.38,0-164.24,16.32-240.35,48.51-12.22,5.17-24.22,10.71-36.01,16.61l43.83,43.84c5.14-2.36,10.33-4.66,15.56-6.87,68.74-29.07,141.74-43.82,216.98-43.82s148.24,14.74,216.98,43.82c7.19,3.04,14.29,6.23,21.32,9.56l43.39-43.83c-13.5-6.92-27.29-13.36-41.35-19.31-76.1-32.19-156.97-48.51-240.35-48.51Z"/>
  <path class="st2" d="M1974.34,2809.39c119.85,0,236.1-23.47,345.52-69.75,45.46-19.23,88.91-42.03,130.18-68.25l-45.86-45.72c-34.69,21.2-71,39.85-108.8,55.84-101.78,43.05-209.87,64.88-321.27,64.88s-219.5-21.83-321.27-64.88c-37.66-15.93-73.83-34.5-108.41-55.6l-45.64,45.56c41.23,26.19,84.64,48.97,130.05,68.17,109.42,46.28,225.67,69.75,345.52,69.75Z"/>
  <path class="st2" d="M1974.34,1034c-119.85,0-236.1,23.47-345.52,69.74-45.74,19.35-89.47,42.32-130.96,68.75l44.75,44.77c35.12-21.56,71.9-40.5,110.22-56.7,101.78-43.05,209.87-64.88,321.27-64.88s219.5,21.83,321.27,64.88c38.9,16.45,76.23,35.73,111.84,57.7l44.66-45.1c-41.81-26.71-85.88-49.9-132.01-69.41-109.42-46.28-225.67-69.74-345.52-69.74Z"/>
  <path class="st2" d="M1972.86,898.88c-138.18,0-272.21,27.06-398.37,80.41-61.59,26.05-120,57.79-174.86,94.95l45.46,45.47c48.91-32.33,100.77-60.15,155.29-83.2,118.46-50.11,244.28-75.51,373.96-75.51s255.49,25.41,373.96,75.51c54.79,23.17,106.89,51.15,156.01,83.68l44-44.43c-55.5-37.8-114.66-70.06-177.08-96.46-126.15-53.36-260.18-80.41-398.37-80.41Z"/>
  <path class="st2" d="M1972.86,2945.81c138.18,0,272.21-27.05,398.37-80.41,62.33-26.36,121.4-58.56,176.83-96.29l-45.13-44.99c-48.72,32.15-100.36,59.81-154.63,82.76-118.46,50.11-244.28,75.51-373.96,75.51s-255.49-25.41-373.96-75.51c-54.21-22.93-105.8-50.55-154.46-82.65l-46.3,46.22c54.86,37.16,113.28,68.9,174.87,94.96,126.15,53.36,260.18,80.41,398.37,80.41Z"/>
  <circle class="st2" cx="1974.92" cy="1921.62" r="251.81" transform="translate(-780.35 1959.31) rotate(-45)"/>
  <path class="st0" d="M1974.95,537.49c-764.82,0-1384.83,620.01-1384.83,1384.83s620.01,1384.83,1384.83,1384.83,1384.83-620.01,1384.83-1384.83-620.01-1384.83-1384.83-1384.83ZM2808.83,1019c37.91,0,68.64,30.73,68.64,68.63s-30.73,68.63-68.64,68.63-68.63-30.73-68.63-68.63,30.73-68.63,68.63-68.63ZM1303.8,836.68c14.05-11.76,24.76-17.19,24.76-17.19,0,0,229.5-154.29,544.82-173.57,448.39-34.71,745.07,170.36,745.07,170.36,13.29,9.86,72,39.86,88.71,128.14,16.29,102-49.29,161.57-49.29,161.57l-295.71,297c-87.76,100.07-212.01,126.91-229.79,130.32-48.68-19.71-101.89-30.56-157.64-30.56s-108.86,10.84-157.5,30.51c-96.72-13.18-185.89-86.01-185.89-86.01,0,0-328.79-325.78-335.57-333.64-28.67-33.23-45.65-68.66-52.61-106.31-11.76-63.65,11-129.05,60.63-170.6ZM1619.71,2210.49c36.89,0,66.8,29.91,66.8,66.8s-29.91,66.8-66.8,66.8-66.8-29.91-66.8-66.8,29.91-66.8,66.8-66.8ZM1618.9,1634.41c-36.89,0-66.8-29.91-66.8-66.8s29.91-66.8,66.8-66.8,66.8,29.91,66.8,66.8-29.91,66.8-66.8,66.8ZM1668.47,1922.32c0-169.27,137.22-306.48,306.48-306.48s306.48,137.22,306.48,306.48-137.22,306.48-306.48,306.48-306.48-137.22-306.48-306.48ZM2328.49,2210.49c36.89,0,66.8,29.91,66.8,66.8s-29.91,66.8-66.8,66.8-66.8-29.91-66.8-66.8,29.91-66.8,66.8-66.8ZM2261.69,1567.61c0-36.89,29.91-66.8,66.8-66.8s66.8,29.91,66.8,66.8-29.91,66.8-66.8,66.8-66.8-29.91-66.8-66.8ZM1139.28,1019c37.91,0,68.64,30.73,68.64,68.63s-30.73,68.63-68.64,68.63-68.63-30.73-68.63-68.63,30.73-68.63,68.63-68.63ZM996.07,2655.39c-88.29-16.71-118.29-75.43-128.14-88.71,0,0-205.07-296.68-170.36-745.07,19.29-315.32,173.57-544.82,173.57-544.82,0,0,5.42-10.71,17.19-24.76,41.55-49.63,106.95-72.38,170.6-60.63,37.66,6.95,73.09,23.94,106.31,52.61,7.86,6.78,333.64,335.57,333.64,335.57,0,0,72.87,89.22,86.02,185.97-19.69,48.66-30.53,101.84-30.53,157.56s10.85,108.94,30.55,157.61c-3.51,18.25-30.47,142.12-130.29,229.67l-297,295.71s-59.57,65.57-161.57,49.29ZM1139.81,2825.98c-37.91,0-68.63-30.73-68.63-68.63s30.73-68.64,68.63-68.64,68.64,30.73,68.64,68.64-30.73,68.63-68.64,68.63ZM2646.1,3008.58c-14.05,11.68-24.76,17.07-24.76,17.07,0,0-229.5,153.24-544.82,172.4-448.39,34.48-745.07-169.2-745.07-169.2-13.29-9.79-72-39.59-88.71-127.27-16.29-101.31,49.29-160.48,49.29-160.48l295.71-294.99c94.71-107.27,231.96-129.83,231.96-129.83h6.04c46.31,17.56,96.54,27.18,149.01,27.18s102.7-9.62,149.01-27.18h5.48c98.04,11.81,189.32,85.88,189.32,85.88,0,0,328.79,323.57,335.57,331.38,28.67,33,45.65,68.19,52.61,105.59,11.76,63.22-11,128.18-60.63,169.45ZM2808.98,2825.98c-37.91,0-68.63-30.73-68.63-68.63s30.73-68.64,68.63-68.64,68.64,30.73,68.64,68.64-30.73,68.63-68.64,68.63ZM2954.33,2655.39c-102,16.29-161.57-49.29-161.57-49.29l-297-295.71c-103.48-90.75-128.66-220.52-130.59-231.23,19.3-48.25,29.93-100.91,29.93-156.05s-10.59-107.65-29.84-155.84c12.51-97.42,86.25-187.7,86.25-187.7,0,0,325.78-328.79,333.64-335.57,33.23-28.67,68.66-45.65,106.31-52.61,63.65-11.76,129.05,11,170.6,60.63,11.76,14.05,17.19,24.76,17.19,24.76,0,0,154.29,229.5,173.57,544.82,34.71,448.39-170.36,745.07-170.36,745.07-9.86,13.29-39.86,72-128.14,88.71Z"/>
</svg>