<?xml version="1.0" encoding="utf-8"?>
<!-- Generator: Fusion 360, Shaper Origin Export Add-In, Version 1.8.0  -->
<svg xmlns="http://www.w3.org/2000/svg" xmlns:xlink="http://www.w3.org/1999/xlink" xmlns:shaper="http://www.shapertools.com/namespaces/shaper" shaper:fusionaddin="version:1.8.0" width="1.5446391cm" height="1.5446391cm" version="1.1" x="0cm" y="0cm" viewBox="0 0 1.5446391 1.5446391" enable-background="new 0 0 1.5446391 1.5446391" xml:space="preserve"><path d="M-0.725,0 a0.725,0.725 0 1,1 1.45,0 a0.725,0.725 0 1,1 -1.45,0z" transform="matrix(1,0,0,-1,0.7723196,0.7723196)" stroke="rgb(100,100,100)" stroke-width="0.0010cm" stroke-linecap="round" stroke-linejoin="round" fill="none" /><path d="M-0.7723196,-0 a0.7723196,0.7723196 0 1,1 1.5446391,0 a0.7723196,0.7723196 0 1,1 -1.5446391,0z" transform="matrix(1,0,0,-1,0.7723196,0.7723196)" stroke="rgb(100,100,100)" stroke-width="0.0010cm" stroke-linecap="round" stroke-linejoin="round" fill="none" /><path d="M0,0 L-0.4736966,0.4736966 0.4736966,-0.4736966" transform="matrix(1,0,0,-1,0.7723196,0.7723196)" stroke="rgb(100,100,100)" stroke-width="0.0010cm" stroke-linecap="round" stroke-linejoin="round" fill="none" /><path d="M-0.1325,0 a0.1325,0.1325 0 1,1 0.265,0 a0.1325,0.1325 0 1,1 -0.265,0z" transform="matrix(1,0,0,-1,0.7723196,0.7723196)" stroke="rgb(100,100,100)" stroke-width="0.0010cm" stroke-linecap="round" stroke-linejoin="round" fill="none" /><path d="M-0.16,0 a0.16,0.16 0 1,1 0.32,0 a0.16,0.16 0 1,1 -0.32,0z" transform="matrix(1,0,0,-1,0.7723196,0.7723196)" stroke="rgb(100,100,100)" stroke-width="0.0010cm" stroke-linecap="round" stroke-linejoin="round" fill="none" /><path d="M-0.22,-0 a0.22,0.22 0 1,1 0.44,0 a0.22,0.22 0 1,1 -0.44,0z" transform="matrix(1,0,0,-1,0.7723196,0.7723196)" stroke="rgb(100,100,100)" stroke-width="0.0010cm" stroke-linecap="round" stroke-linejoin="round" fill="none" /><path d="M-0.6699081,-0 a0.6699081,0.6699081 0 1,1 1.3398163,0 a0.6699081,0.6699081 0 1,1 -1.3398163,0z" transform="matrix(1,0,0,-1,0.7723196,0.7723196)" stroke="rgb(100,100,100)" stroke-width="0.0010cm" stroke-linecap="round" stroke-linejoin="round" fill="none" /><path d="M0.1166572,0.1865237 L0.4374735,0.50734" transform="matrix(1,0,0,-1,0.7723196,0.7723196)" stroke="rgb(100,100,100)" stroke-width="0.0010cm" stroke-linecap="round" stroke-linejoin="round" fill="none" /><path d="M-0.1166572,0.1865237 L-0.4374735,0.50734" transform="matrix(1,0,0,-1,0.7723196,0.7723196)" stroke="rgb(100,100,100)" stroke-width="0.0010cm" stroke-linecap="round" stroke-linejoin="round" fill="none" /><path d="M0.1865237,0.1166572 L0.50734,0.4374735" transform="matrix(1,0,0,-1,0.7723196,0.7723196)" stroke="rgb(100,100,100)" stroke-width="0.0010cm" stroke-linecap="round" stroke-linejoin="round" fill="none" /><path d="M0.5468923,-0.3868923 L0.16,0 0.5468923,0.3868923" transform="matrix(1,0,0,-1,0.7723196,0.7723196)" stroke="rgb(100,100,100)" stroke-width="0.0010cm" stroke-linecap="round" stroke-linejoin="round" fill="none" /><path d="M0.266066,-0.106066 A0.2144937,0.2144937 330.3635654 0,1 0.266066,0.106066" transform="matrix(1,0,0,-1,0.7723196,0.7723196)" stroke="rgb(100,100,100)" stroke-width="0.0010cm" stroke-linecap="round" stroke-linejoin="round" fill="none" /><path d="M0.3226346,-0.1626346 A0.3613074,0.3613074 333.248109 0,1 0.3226346,0.1626346" transform="matrix(1,0,0,-1,0.7723196,0.7723196)" stroke="rgb(100,100,100)" stroke-width="0.0010cm" stroke-linecap="round" stroke-linejoin="round" fill="none" /><path d="M0.4499138,-0.2899138 A0.5352312,0.5352312 327.2032272 0,1 0.4499138,0.2899138" transform="matrix(1,0,0,-1,0.7723196,0.7723196)" stroke="rgb(100,100,100)" stroke-width="0.0010cm" stroke-linecap="round" stroke-linejoin="round" fill="none" /><path d="M0.5064823,-0.3464823 A0.6136565,0.6136565 325.6241411 0,1 0.5064823,0.3464823" transform="matrix(1,0,0,-1,0.7723196,0.7723196)" stroke="rgb(100,100,100)" stroke-width="0.0010cm" stroke-linecap="round" stroke-linejoin="round" fill="none" /><path d="M0.3579899,-0.1979899 A0.4090926,0.4090926 331.054773 0,1 0.3579899,0.1979899" transform="matrix(1,0,0,-1,0.7723196,0.7723196)" stroke="rgb(100,100,100)" stroke-width="0.0010cm" stroke-linecap="round" stroke-linejoin="round" fill="none" /><path d="M0.4145584,-0.2545584 A0.4864758,0.4864758 328.448112 0,1 0.4145584,0.2545584" transform="matrix(1,0,0,-1,0.7723196,0.7723196)" stroke="rgb(100,100,100)" stroke-width="0.0010cm" stroke-linecap="round" stroke-linejoin="round" fill="none" /><path d="M0.1865237,-0.1166572 L0.50734,-0.4374735" transform="matrix(1,0,0,-1,0.7723196,0.7723196)" stroke="rgb(100,100,100)" stroke-width="0.0010cm" stroke-linecap="round" stroke-linejoin="round" fill="none" /><path d="M0.4011868,0.4370519 a0.035865,0.035865 0 1,1 0.0717301,0 a0.035865,0.035865 0 1,1 -0.0717301,0z" transform="matrix(1,0,0,-1,0.7723196,0.7723196)" stroke="rgb(100,100,100)" stroke-width="0.0010cm" stroke-linecap="round" stroke-linejoin="round" fill="none" /><path d="M0.1511599,0.1858294 a0.0346695,0.0346695 0 1,1 0.0693389,0 a0.0346695,0.0346695 0 1,1 -0.0693389,0z" transform="matrix(1,0,0,-1,0.7723196,0.7723196)" stroke="rgb(100,100,100)" stroke-width="0.0010cm" stroke-linecap="round" stroke-linejoin="round" fill="none" /><path d="M0.0165333,0.1591435 L0.396994,0.5396042" transform="matrix(1,0,0,-1,0.7723196,0.7723196)" stroke="rgb(100,100,100)" stroke-width="0.0010cm" stroke-linecap="round" stroke-linejoin="round" fill="none" /><path d="M-0.0165333,0.1591435 L-0.396994,0.5396042" transform="matrix(1,0,0,-1,0.7723196,0.7723196)" stroke="rgb(100,100,100)" stroke-width="0.0010cm" stroke-linecap="round" stroke-linejoin="round" fill="none" /><path d="M0.1225993,0.2652095 A0.2921757,0.2921757 65.1901599 0,1 -0.1225993,0.2652095" transform="matrix(1,0,0,-1,0.7723196,0.7723196)" stroke="rgb(100,100,100)" stroke-width="0.0010cm" stroke-linecap="round" stroke-linejoin="round" fill="none" /><path d="M0.1459338,0.288544 A0.3233486,0.3233486 63.1715754 0,1 -0.1459338,0.288544" transform="matrix(1,0,0,-1,0.7723196,0.7723196)" stroke="rgb(100,100,100)" stroke-width="0.0010cm" stroke-linecap="round" stroke-linejoin="round" fill="none" /><path d="M0.1742181,0.3168283 A0.361569,0.361569 61.1944129 0,1 -0.1742181,0.3168283" transform="matrix(1,0,0,-1,0.7723196,0.7723196)" stroke="rgb(100,100,100)" stroke-width="0.0010cm" stroke-linecap="round" stroke-linejoin="round" fill="none" /><path d="M0.1975526,0.3401628 A0.3933672,0.3933672 59.8537407 0,1 -0.1975526,0.3401628" transform="matrix(1,0,0,-1,0.7723196,0.7723196)" stroke="rgb(100,100,100)" stroke-width="0.0010cm" stroke-linecap="round" stroke-linejoin="round" fill="none" /><path d="M0.2258369,0.3684471 A0.4321522,0.4321522 58.4941001 0,1 -0.2258369,0.3684471" transform="matrix(1,0,0,-1,0.7723196,0.7723196)" stroke="rgb(100,100,100)" stroke-width="0.0010cm" stroke-linecap="round" stroke-linejoin="round" fill="none" /><path d="M0.2491714,0.3917816 A0.4643051,0.4643051 57.5438192 0,1 -0.2491714,0.3917816" transform="matrix(1,0,0,-1,0.7723196,0.7723196)" stroke="rgb(100,100,100)" stroke-width="0.0010cm" stroke-linecap="round" stroke-linejoin="round" fill="none" /><path d="M0.2774557,0.4200659 A0.5034253,0.5034253 56.5550352 0,1 -0.2774557,0.4200659" transform="matrix(1,0,0,-1,0.7723196,0.7723196)" stroke="rgb(100,100,100)" stroke-width="0.0010cm" stroke-linecap="round" stroke-linejoin="round" fill="none" /><path d="M0.3007902,0.4434004 A0.5357972,0.5357972 55.8481518 0,1 -0.3007902,0.4434004" transform="matrix(1,0,0,-1,0.7723196,0.7723196)" stroke="rgb(100,100,100)" stroke-width="0.0010cm" stroke-linecap="round" stroke-linejoin="round" fill="none" /><path d="M0.3290745,0.4716847 A0.5751317,0.5751317 55.0981488 0,1 -0.3290745,0.4716847" transform="matrix(1,0,0,-1,0.7723196,0.7723196)" stroke="rgb(100,100,100)" stroke-width="0.0010cm" stroke-linecap="round" stroke-linejoin="round" fill="none" /><path d="M0.352409,0.4950192 A0.607648,0.607648 54.5525675 0,1 -0.352409,0.4950192" transform="matrix(1,0,0,-1,0.7723196,0.7723196)" stroke="rgb(100,100,100)" stroke-width="0.0010cm" stroke-linecap="round" stroke-linejoin="round" fill="none" /><path d="M-0.2204989,0.1858294 a0.0346695,0.0346695 0 1,1 0.0693389,0 a0.0346695,0.0346695 0 1,1 -0.0693389,0z" transform="matrix(1,0,0,-1,0.7723196,0.7723196)" stroke="rgb(100,100,100)" stroke-width="0.0010cm" stroke-linecap="round" stroke-linejoin="round" fill="none" /><path d="M-0.4729169,0.4370519 a0.035865,0.035865 0 1,1 0.0717301,0 a0.035865,0.035865 0 1,1 -0.0717301,0z" transform="matrix(1,0,0,-1,0.7723196,0.7723196)" stroke="rgb(100,100,100)" stroke-width="0.0010cm" stroke-linecap="round" stroke-linejoin="round" fill="none" /><path d="M0.1511599,-0.1858294 a0.0346695,0.0346695 0 1,1 0.0693389,0 a0.0346695,0.0346695 0 1,1 -0.0693389,0z" transform="matrix(1,0,0,-1,0.7723196,0.7723196)" stroke="rgb(100,100,100)" stroke-width="0.0010cm" stroke-linecap="round" stroke-linejoin="round" fill="none" /><path d="M0.4011868,-0.4370519 a0.035865,0.035865 0 1,1 0.0717301,0 a0.035865,0.035865 0 1,1 -0.0717301,0z" transform="matrix(1,0,0,-1,0.7723196,0.7723196)" stroke="rgb(100,100,100)" stroke-width="0.0010cm" stroke-linecap="round" stroke-linejoin="round" fill="none" /><path d="M0.582793,0.3303471 A0.0981048,0.0981048 26.5805345 0,1 0.4256867,0.3558202" transform="matrix(1,0,0,-1,0.7723196,0.7723196)" stroke="rgb(100,100,100)" stroke-width="0.0010cm" stroke-linecap="round" stroke-linejoin="round" fill="none" /><path d="M0.2648467,0.1949801 A0.218887,0.218887 135 0,1 0.2045633,0.080956" transform="matrix(1,0,0,-1,0.7723196,0.7723196)" stroke="rgb(100,100,100)" stroke-width="0.0010cm" stroke-linecap="round" stroke-linejoin="round" fill="none" /><path d="M0.2045633,-0.080956 A0.218887,0.218887 190.7299204 0,1 0.2648432,-0.1949766" transform="matrix(1,0,0,-1,0.7723196,0.7723196)" stroke="rgb(100,100,100)" stroke-width="0.0010cm" stroke-linecap="round" stroke-linejoin="round" fill="none" /><path d="M0.4256867,-0.3558202 A0.0981048,0.0981048 225 0,1 0.5768386,-0.3406379" transform="matrix(1,0,0,-1,0.7723196,0.7723196)" stroke="rgb(100,100,100)" stroke-width="0.0010cm" stroke-linecap="round" stroke-linejoin="round" fill="none" /><path d="M0.0165333,-0.1591435 L0.396994,-0.5396042" transform="matrix(1,0,0,-1,0.7723196,0.7723196)" stroke="rgb(100,100,100)" stroke-width="0.0010cm" stroke-linecap="round" stroke-linejoin="round" fill="none" /><path d="M-0.0165333,-0.1591435 L-0.396994,-0.5396042" transform="matrix(1,0,0,-1,0.7723196,0.7723196)" stroke="rgb(100,100,100)" stroke-width="0.0010cm" stroke-linecap="round" stroke-linejoin="round" fill="none" /><path d="M-0.1166572,-0.1865237 L-0.4374735,-0.50734" transform="matrix(1,0,0,-1,0.7723196,0.7723196)" stroke="rgb(100,100,100)" stroke-width="0.0010cm" stroke-linecap="round" stroke-linejoin="round" fill="none" /><path d="M0.1166572,-0.1865237 L0.4374735,-0.50734" transform="matrix(1,0,0,-1,0.7723196,0.7723196)" stroke="rgb(100,100,100)" stroke-width="0.0010cm" stroke-linecap="round" stroke-linejoin="round" fill="none" /><path d="M-0.5468923,-0.3868923 L-0.16,-0 -0.5468923,0.3868923" transform="matrix(1,0,0,-1,0.7723196,0.7723196)" stroke="rgb(100,100,100)" stroke-width="0.0010cm" stroke-linecap="round" stroke-linejoin="round" fill="none" /><path d="M-0.1865237,0.1166572 L-0.50734,0.4374735" transform="matrix(1,0,0,-1,0.7723196,0.7723196)" stroke="rgb(100,100,100)" stroke-width="0.0010cm" stroke-linecap="round" stroke-linejoin="round" fill="none" /><path d="M-0.1865237,-0.1166572 L-0.50734,-0.4374735" transform="matrix(1,0,0,-1,0.7723196,0.7723196)" stroke="rgb(100,100,100)" stroke-width="0.0010cm" stroke-linecap="round" stroke-linejoin="round" fill="none" /><path d="M-0.2204989,-0.1858294 a0.0346695,0.0346695 0 1,1 0.0693389,0 a0.0346695,0.0346695 0 1,1 -0.0693389,0z" transform="matrix(1,0,0,-1,0.7723196,0.7723196)" stroke="rgb(100,100,100)" stroke-width="0.0010cm" stroke-linecap="round" stroke-linejoin="round" fill="none" /><path d="M-0.4729169,-0.4370519 a0.035865,0.035865 0 1,1 0.0717301,0 a0.035865,0.035865 0 1,1 -0.0717301,0z" transform="matrix(1,0,0,-1,0.7723196,0.7723196)" stroke="rgb(100,100,100)" stroke-width="0.0010cm" stroke-linecap="round" stroke-linejoin="round" fill="none" /><path d="M0.3558167,0.4256832 A0.0981048,0.0981048 314.9971146 0,1 0.3406379,0.5768386" transform="matrix(1,0,0,-1,0.7723196,0.7723196)" stroke="rgb(100,100,100)" stroke-width="0.0010cm" stroke-linecap="round" stroke-linejoin="round" fill="none" /><path d="M0.0766572,0.2062127 A0.218887,0.218887 278.8036804 0,1 0.1949801,0.2648467" transform="matrix(1,0,0,-1,0.7723196,0.7723196)" stroke="rgb(100,100,100)" stroke-width="0.0010cm" stroke-linecap="round" stroke-linejoin="round" fill="none" /><path d="M-0.1949801,0.2648467 A0.218887,0.218887 225 0,1 -0.080956,0.2045633" transform="matrix(1,0,0,-1,0.7723196,0.7723196)" stroke="rgb(100,100,100)" stroke-width="0.0010cm" stroke-linecap="round" stroke-linejoin="round" fill="none" /><path d="M-0.3303471,0.582793 A0.0981048,0.0981048 116.459224 0,1 -0.3602608,0.4301273" transform="matrix(1,0,0,-1,0.7723196,0.7723196)" stroke="rgb(100,100,100)" stroke-width="0.0010cm" stroke-linecap="round" stroke-linejoin="round" fill="none" /><path d="M-0.1225993,-0.2652095 A0.2921757,0.2921757 245.1901599 0,1 0.1225993,-0.2652095" transform="matrix(1,0,0,-1,0.7723196,0.7723196)" stroke="rgb(100,100,100)" stroke-width="0.0010cm" stroke-linecap="round" stroke-linejoin="round" fill="none" /><path d="M-0.1459338,-0.288544 A0.3233486,0.3233486 243.1715754 0,1 0.1459338,-0.288544" transform="matrix(1,0,0,-1,0.7723196,0.7723196)" stroke="rgb(100,100,100)" stroke-width="0.0010cm" stroke-linecap="round" stroke-linejoin="round" fill="none" /><path d="M-0.1742181,-0.3168283 A0.361569,0.361569 241.1944129 0,1 0.1742181,-0.3168283" transform="matrix(1,0,0,-1,0.7723196,0.7723196)" stroke="rgb(100,100,100)" stroke-width="0.0010cm" stroke-linecap="round" stroke-linejoin="round" fill="none" /><path d="M-0.1975526,-0.3401628 A0.3933672,0.3933672 239.8537407 0,1 0.1975526,-0.3401628" transform="matrix(1,0,0,-1,0.7723196,0.7723196)" stroke="rgb(100,100,100)" stroke-width="0.0010cm" stroke-linecap="round" stroke-linejoin="round" fill="none" /><path d="M-0.2258369,-0.3684471 A0.4321522,0.4321522 238.4941 0,1 0.2258369,-0.3684471" transform="matrix(1,0,0,-1,0.7723196,0.7723196)" stroke="rgb(100,100,100)" stroke-width="0.0010cm" stroke-linecap="round" stroke-linejoin="round" fill="none" /><path d="M-0.2491714,-0.3917816 A0.4643051,0.4643051 237.5438192 0,1 0.2491714,-0.3917816" transform="matrix(1,0,0,-1,0.7723196,0.7723196)" stroke="rgb(100,100,100)" stroke-width="0.0010cm" stroke-linecap="round" stroke-linejoin="round" fill="none" /><path d="M-0.2774557,-0.4200659 A0.5034253,0.5034253 236.5550352 0,1 0.2774557,-0.4200659" transform="matrix(1,0,0,-1,0.7723196,0.7723196)" stroke="rgb(100,100,100)" stroke-width="0.0010cm" stroke-linecap="round" stroke-linejoin="round" fill="none" /><path d="M-0.3007902,-0.4434004 A0.5357972,0.5357972 235.8481518 0,1 0.3007902,-0.4434004" transform="matrix(1,0,0,-1,0.7723196,0.7723196)" stroke="rgb(100,100,100)" stroke-width="0.0010cm" stroke-linecap="round" stroke-linejoin="round" fill="none" /><path d="M-0.3290745,-0.4716847 A0.5751317,0.5751317 235.0981488 0,1 0.3290745,-0.4716847" transform="matrix(1,0,0,-1,0.7723196,0.7723196)" stroke="rgb(100,100,100)" stroke-width="0.0010cm" stroke-linecap="round" stroke-linejoin="round" fill="none" /><path d="M-0.352409,-0.4950192 A0.607648,0.607648 234.5525675 0,1 0.352409,-0.4950192" transform="matrix(1,0,0,-1,0.7723196,0.7723196)" stroke="rgb(100,100,100)" stroke-width="0.0010cm" stroke-linecap="round" stroke-linejoin="round" fill="none" /><path d="M0.3406379,-0.5768386 A0.0981048,0.0981048 303.5284514 0,1 0.3558167,-0.4256832" transform="matrix(1,0,0,-1,0.7723196,0.7723196)" stroke="rgb(100,100,100)" stroke-width="0.0010cm" stroke-linecap="round" stroke-linejoin="round" fill="none" /><path d="M-0.3602608,-0.4301273 A0.0981048,0.0981048 138.6316292 0,1 -0.3303471,-0.582793" transform="matrix(1,0,0,-1,0.7723196,0.7723196)" stroke="rgb(100,100,100)" stroke-width="0.0010cm" stroke-linecap="round" stroke-linejoin="round" fill="none" /><path d="M-0.266066,0.106066 A0.2144937,0.2144937 150.3635654 0,1 -0.266066,-0.106066" transform="matrix(1,0,0,-1,0.7723196,0.7723196)" stroke="rgb(100,100,100)" stroke-width="0.0010cm" stroke-linecap="round" stroke-linejoin="round" fill="none" /><path d="M-0.3226346,0.1626346 A0.3613074,0.3613074 153.248109 0,1 -0.3226346,-0.1626346" transform="matrix(1,0,0,-1,0.7723196,0.7723196)" stroke="rgb(100,100,100)" stroke-width="0.0010cm" stroke-linecap="round" stroke-linejoin="round" fill="none" /><path d="M-0.3579899,0.1979899 A0.4090926,0.4090926 151.054773 0,1 -0.3579899,-0.1979899" transform="matrix(1,0,0,-1,0.7723196,0.7723196)" stroke="rgb(100,100,100)" stroke-width="0.0010cm" stroke-linecap="round" stroke-linejoin="round" fill="none" /><path d="M-0.4145584,0.2545584 A0.4864758,0.4864758 148.448112 0,1 -0.4145584,-0.2545584" transform="matrix(1,0,0,-1,0.7723196,0.7723196)" stroke="rgb(100,100,100)" stroke-width="0.0010cm" stroke-linecap="round" stroke-linejoin="round" fill="none" /><path d="M-0.4499138,0.2899138 A0.5352312,0.5352312 147.2032272 0,1 -0.4499138,-0.2899138" transform="matrix(1,0,0,-1,0.7723196,0.7723196)" stroke="rgb(100,100,100)" stroke-width="0.0010cm" stroke-linecap="round" stroke-linejoin="round" fill="none" /><path d="M-0.5064823,0.3464823 A0.6136565,0.6136565 145.6241411 0,1 -0.5064823,-0.3464823" transform="matrix(1,0,0,-1,0.7723196,0.7723196)" stroke="rgb(100,100,100)" stroke-width="0.0010cm" stroke-linecap="round" stroke-linejoin="round" fill="none" /><path d="M-0.4256867,0.3558202 A0.0981048,0.0981048 45 0,1 -0.582793,0.3303471" transform="matrix(1,0,0,-1,0.7723196,0.7723196)" stroke="rgb(100,100,100)" stroke-width="0.0010cm" stroke-linecap="round" stroke-linejoin="round" fill="none" /><path d="M-0.5768386,-0.3406379 A0.0981048,0.0981048 213.5284529 0,1 -0.4256867,-0.3558202" transform="matrix(1,0,0,-1,0.7723196,0.7723196)" stroke="rgb(100,100,100)" stroke-width="0.0010cm" stroke-linecap="round" stroke-linejoin="round" fill="none" /><path d="M-0.2648432,-0.1949766 A0.218887,0.218887 315.0013042 0,1 -0.2045633,-0.080956" transform="matrix(1,0,0,-1,0.7723196,0.7723196)" stroke="rgb(100,100,100)" stroke-width="0.0010cm" stroke-linecap="round" stroke-linejoin="round" fill="none" /><path d="M-0.2045633,0.080956 A0.218887,0.218887 10.7299204 0,1 -0.2648467,0.1949801" transform="matrix(1,0,0,-1,0.7723196,0.7723196)" stroke="rgb(100,100,100)" stroke-width="0.0010cm" stroke-linecap="round" stroke-linejoin="round" fill="none" /><path d="M-0.080956,-0.2045633 A0.218887,0.218887 100.7299203 0,1 -0.1949801,-0.2648467" transform="matrix(1,0,0,-1,0.7723196,0.7723196)" stroke="rgb(100,100,100)" stroke-width="0.0010cm" stroke-linecap="round" stroke-linejoin="round" fill="none" /><path d="M0.1949801,-0.2648467 A0.218887,0.218887 46.0829867 0,1 0.0766572,-0.2062127" transform="matrix(1,0,0,-1,0.7723196,0.7723196)" stroke="rgb(100,100,100)" stroke-width="0.0010cm" stroke-linecap="round" stroke-linejoin="round" fill="none" /></svg>